<?xml version="1.0" encoding="utf-8"?><svg xmlns="http://www.w3.org/2000/svg" xmlns:xlink="http://www.w3.org/1999/xlink"><symbol viewBox="0 0 22 11" id="arrow" xmlns="http://www.w3.org/2000/svg"><path d="M1 5.5h18.883M16.098 1l4.816 4.306a.261.261 0 010 .388L16.098 10"/></symbol><symbol viewBox="0 0 14 14" id="close" xmlns="http://www.w3.org/2000/svg"><path d="M13 1L1 13M1 1l12 12"/></symbol><symbol viewBox="0 0 18 16" id="tg" xmlns="http://www.w3.org/2000/svg"><path d="M7.062 10.386l-.297 4.188c.427 0 .61-.183.832-.402l1.997-1.91 4.138 3.031c.759.423 1.294.2 1.499-.698l2.717-12.729C18.19.743 17.545.304 16.805.58L.835 6.693C-.254 7.116-.238 7.723.65 7.999l4.081 1.27 9.483-5.933c.447-.296.851-.132.518.163l-7.67 6.887z"/></symbol><symbol viewBox="0 0 22 24" id="vb" xmlns="http://www.w3.org/2000/svg"><path d="M21.412 13.846c.698-5.87-.335-9.577-2.198-11.254h.001C16.21-.273 6.057-.697 2.46 2.72.845 4.39.276 6.842.214 9.878.15 12.914.077 18.602 5.378 20.145h.005l-.005 2.357s-.036.954.573 1.146c.698.226 1.014-.217 3.183-2.808 3.628.314 6.414-.406 6.73-.512.733-.245 4.878-.794 5.548-6.482zm-11.92 5.336s-2.297 2.863-3.01 3.606c-.234.242-.49.22-.487-.26 0-.315.018-3.912.018-3.912-4.494-1.288-4.229-6.131-4.18-8.665.049-2.535.512-4.61 1.88-6.009C6.868.984 15.769 1.645 18.037 3.777c2.772 2.457 1.785 9.401 1.791 9.638-.57 4.748-3.929 5.049-4.546 5.254-.264.088-2.714.718-5.79.513z" fill-opacity=".8"/><path d="M10.762 4.499c-.375 0-.375.585 0 .59 2.91.022 5.306 2.05 5.332 5.77 0 .393.575.388.57-.005-.032-4.008-2.649-6.333-5.902-6.355z" fill-opacity=".8"/><path d="M14.589 10.242c-.009.388.565.407.57.014.047-2.21-1.315-4.03-3.876-4.223-.375-.027-.414.562-.04.59 2.22.168 3.39 1.684 3.346 3.62zm-.614 2.514c-.481-.278-.971-.105-1.174.169l-.424.548c-.215.279-.617.242-.617.242-2.936-.776-3.721-3.849-3.721-3.849s-.036-.416.232-.639l.53-.438c.265-.21.433-.717.163-1.215-.72-1.302-1.205-1.752-1.451-2.096-.26-.325-.65-.398-1.054-.179h-.01c-.842.493-1.764 1.416-1.47 2.366.504 1.001 1.43 4.193 4.38 6.605 1.386 1.14 3.58 2.31 4.51 2.58l.01.013c.917.306 1.81-.652 2.286-1.52v-.007c.211-.42.141-.817-.168-1.078-.547-.533-1.373-1.123-2.022-1.502z" fill-opacity=".8"/><path d="M11.684 8.207c.936.055 1.39.544 1.439 1.548.017.393.587.365.57-.027-.063-1.311-.746-2.042-1.978-2.11-.375-.023-.41.567-.031.59z" fill-opacity=".8"/></symbol><symbol viewBox="0 0 22 22" id="wapp" xmlns="http://www.w3.org/2000/svg"><path fill-rule="evenodd" clip-rule="evenodd" d="M10.993 21.614h-.004c-1.791 0-3.551-.45-5.115-1.303L.2 21.8l1.519-5.547a10.684 10.684 0 01-1.43-5.35C.293 5 5.095.2 10.994.2a10.634 10.634 0 017.572 3.139 10.639 10.639 0 013.132 7.572c-.003 5.9-4.802 10.7-10.704 10.703zm-4.531-3.048l-.325-.193-3.367.884.899-3.283-.212-.337a8.875 8.875 0 01-1.36-4.734c.002-4.905 3.993-8.896 8.9-8.896a8.838 8.838 0 016.29 2.61 8.842 8.842 0 012.603 6.293c-.002 4.905-3.993 8.896-8.896 8.896h-.004a8.883 8.883 0 01-4.528-1.24zm9.924-5.11c-.054-.09-.18-.15-.366-.241a10.093 10.093 0 01-.147-.072c-.267-.133-1.582-.78-1.827-.87-.245-.089-.424-.133-.602.134-.178.268-.69.87-.847 1.049-.156.178-.312.2-.58.067a3.293 3.293 0 00-.176-.08 6.908 6.908 0 01-1.974-1.248c-.795-.709-1.332-1.585-1.488-1.852-.156-.268-.016-.413.118-.546.08-.08.172-.192.264-.304.046-.056.092-.113.137-.165.113-.132.163-.233.23-.37l.037-.076c.09-.178.045-.334-.022-.468-.045-.09-.299-.709-.53-1.27a195.6 195.6 0 00-.295-.716c-.191-.46-.386-.46-.541-.458l-.06-.001c-.156-.008-.335-.01-.513-.01a.982.982 0 00-.713.335 6.692 6.692 0 01-.052.056c-.279.297-.884.943-.884 2.175 0 1.31.948 2.575 1.09 2.764l.002.003.047.066c.32.46 2.014 2.89 4.522 3.972.638.275 1.136.44 1.524.563.64.204 1.224.175 1.685.106.514-.077 1.582-.647 1.805-1.271.223-.625.223-1.16.156-1.272z" fill-opacity=".8"/></symbol><symbol viewBox="0 0 16 16" id="warning" xmlns="http://www.w3.org/2000/svg"><rect x=".5" y=".5" width="15" height="15" rx="7.5"/><path d="M7.465 9.613c0-.324.058-.626.173-.906.116-.28.257-.52.421-.718.165-.199.33-.387.495-.564.165-.184.305-.383.42-.596.117-.221.175-.453.175-.696 0-.369-.107-.649-.32-.84-.208-.2-.48-.299-.815-.299-.672 0-1.102.358-1.29 1.072L6 5.58c.153-.516.412-.906.778-1.171A2.032 2.032 0 018.023 4c.543 0 1.007.184 1.391.552.39.369.586.88.586 1.536 0 .31-.058.6-.174.873a2.847 2.847 0 01-.421.708c-.165.198-.33.394-.494.585a2.776 2.776 0 00-.421.63 1.589 1.589 0 00-.174.73h-.851zM7.885 12a.53.53 0 01-.42-.21.77.77 0 01-.174-.508.77.77 0 01.174-.508.529.529 0 01.842 0 .77.77 0 01.174.508.77.77 0 01-.174.508c-.11.14-.25.21-.421.21z"/><defs><linearGradient id="fpaint0_linear" x1="0" y1="8.081" x2="16" y2="8.081" gradientUnits="userSpaceOnUse"><stop stop-color="#EFC264"/><stop offset="1" stop-color="#CD713F"/></linearGradient><linearGradient id="fpaint1_linear" x1="6" y1="8.04" x2="10.159" y2="8.04" gradientUnits="userSpaceOnUse"><stop stop-color="#E2AE53"/><stop offset="1" stop-color="#E1874D"/></linearGradient></defs></symbol></svg>